<?xml version="1.0" ?><!DOCTYPE svg  PUBLIC '-//W3C//DTD SVG 1.1//EN'  'http://www.w3.org/Graphics/SVG/1.1/DTD/svg11.dtd'><svg enable-background="new 0 0 128 128" id="Layer_1" version="1.1" viewBox="0 0 128 128" xml:space="preserve" xmlns="http://www.w3.org/2000/svg" xmlns:xlink="http://www.w3.org/1999/xlink"><g><path d="M96.7,81.1H75.9l0,0l-0.2,0l0,0l-0.2,0l0,0l-0.2,0l0,0l-0.2,0l0,0l-0.2,0l0,0l-0.2,0l0,0l-0.2,0l0,0l-0.2,0   l0,0l-0.2,0l0,0l-0.2,0l0,0l-0.2,0l0,0l-0.2,0l0,0l-0.2,0l0,0l-0.2,0l0,0l-0.2,0l0,0l-0.2,0l0,0l-0.2,0l0,0l-0.2,0v0l-0.2,0l0,0   l-0.2,0l0,0l-0.2,0l0,0l-0.2,0l0,0l-0.1,0l0,0l-0.1,0v0l-0.1,0v0l-0.1,0v0l-0.1-0.1l0,0l-0.1-0.1h0l-0.1-0.1l0,0l-0.1-0.1v0   l-0.1-0.1l0,0l-0.1-0.1v0l-0.1-0.1v0L70.6,80l0,0l-0.1-0.1l0,0l-0.1-0.1v0l-0.1-0.1v0l-0.1-0.1h0l-0.1-0.1h0l-0.1-0.1l0,0l-0.1-0.1   v0l-0.1-0.1l-0.1-0.1l-0.1-0.1v0l-0.1-0.1L69,79.1v0L68.9,79v0L68.8,79l-0.1-0.1l-0.1-0.1l-0.1-0.1l-0.1-0.1l-0.1-0.1L68,78.4   l-0.1-0.1l-0.1-0.1v0l-0.1-0.1L67.5,78v0l-0.1-0.1l-0.1-0.1l-0.1-0.1l-0.1-0.1L67,77.5l-0.1-0.1l-0.1-0.1l-0.1-0.1l-0.1-0.1   L66.4,77l-0.1-0.1l-0.1-0.1l-0.1-0.1L66,76.5L66,76.4l-0.1-0.1l-0.1-0.1L65.7,76l-0.1-0.1l-0.1-0.1l-0.1-0.1l-0.1-0.1v0l-0.1-0.1v0   l-0.1-0.1l-0.1-0.1v0L65,75l-0.1-0.1l-0.1-0.1v0l-0.1-0.1v0l-0.1-0.1v0l-0.1-0.1l-0.1-0.1v0l-0.1-0.1l-0.1-0.1l-0.1-0.1l-0.1-0.1v0   l-0.1-0.1l-0.1-0.1v0l-0.1-0.1v0L64,73.1v0L64,72.9v0l-0.1-0.1l-0.1-0.1v0l-0.1-0.1v0l0-0.1v0l0-0.1v0l0-0.1l0-0.2v0l0-0.2l0-0.2v0   l0-0.2v0l0-0.2v0l0-0.2v0l0-0.2v0l0-0.2l0-0.2l0-0.2l0-0.2v0l0-0.2l0-0.2v0l0-0.2l0-0.2l0-0.2v0l0-0.2l0-0.2v0l0-0.2l0-0.2l0-0.2   l0-0.2l0-0.2v0v0l0-0.2v0l0-0.2v0l0-0.2v0l0-0.2v0l0-0.2v0l0-0.2v0l0-0.2v0l0-0.2v0l0-0.2v0l0-0.2v0l0-0.2v0l0-0.2v0l0-0.2v0l0-0.2   v0l0-0.2v0l0-0.2v0l0-0.2v0l0-0.2l0-0.2v0l0-0.2v0l0-0.2v0l0-0.2v0l0-0.1v0l0-0.1l0-0.1l0-0.1l0.1-0.1v0l0.1-0.1v0l0.1-0.1v0   l0.1-0.1l0.1-0.1v0l0.1-0.1l0.1-0.1l0.1-0.1v0l0.1-0.1v0l0.1-0.1l0.1-0.1l0.1-0.1v0l0.1-0.1v0l0.1-0.1v0l0.1-0.1l0.1-0.1l0.1-0.1   l0.1-0.1l0.1-0.1l0.1-0.1l0.1-0.1l0.1-0.1l0.1-0.1l0.1-0.1l0.1-0.1l0.1-0.1l0.1-0.1l0.1-0.1l0.1-0.1l0.1-0.1l0.1-0.1l0.1-0.1   l0.1-0.1l0.1-0.1l0.1-0.1l0.1-0.1l0.1-0.1l0.1-0.1l0.1-0.1l0.1-0.1l0.1-0.1l0.1-0.1l0.1-0.1l0.1-0.1l0.1-0.1l0.1-0.1l0.1-0.1   l0.1-0.1l0.1-0.1l0.1-0.1l0.1-0.1l0.1-0.1l0.1-0.1l0.1-0.1l0.1-0.1l0.1-0.1l0.1-0.1l0.1-0.1l0.1-0.1l0.1-0.1l0.1-0.1l0.1-0.1h0   l0.1-0.1h0l0.1-0.1h0l0.1-0.1l0.1-0.1l0.1-0.1h0l0.1-0.1h0l0.1-0.1l0.1-0.1l0.1-0.1h0l0.1-0.1l0.1-0.1h0l0.1-0.1h0l0.1-0.1h0   l0.1-0.1l0.1,0l0.1,0l0.1,0h0l0.1,0h0l0.2,0h0l0.2,0h0l0.2,0h0l0.2,0l0.2,0h0l0.2,0h0l0.2,0h0l0.2,0h0l0.2,0h0l0.2,0h0l0.2,0h0   l0.2,0h0l0.2,0h0l0.2,0h0l0.2,0h0l0.2,0h0l0.2,0h0l0.2,0h0l0.2,0h0l0.2,0h0l0.2,0h0l0.2,0h0h20.8v-9.4c0-2.1-0.8-3.9-2.2-5.3   c-1.4-1.4-3.2-2.2-5.3-2.2H26.8h0l0,0l0,0h0l0,0l-0.1,0h0l-0.1,0l0,0l0,0l0,0l0,0l0,0l0,0l0,0l0,0l0,0l0,0l0,0l0,0l0,0l0,0l0,0l0,0   l0,0l0,0l0,0l0,0l0,0l0,0l0,0l0,0l-0.1,0l0,0c-1.7,0.2-3.3,1-4.4,2.2c-1.4,1.4-2.2,3.2-2.2,5.3v44.3c0,2.1,0.8,3.9,2.2,5.3   c1.4,1.4,3.2,2.2,5.3,2.2h62.4c2.1,0,3.9-0.8,5.3-2.2c1.4-1.4,2.2-3.2,2.2-5.3v-0.3V81.1z M98.7,77.1h5.2l0,0h3.5   c0.3,0,0.6-0.1,0.8-0.3l0,0c0.2-0.2,0.3-0.5,0.3-0.8v-15c0-0.3-0.1-0.6-0.4-0.8c-0.2-0.2-0.5-0.4-0.8-0.4H104h-5.2H75.9h0l-0.1,0h0   l-0.1,0h0l-0.1,0h0l-0.1,0h0l-0.1,0h0l-0.1,0h0l-0.1,0h0l-0.1,0h0l-0.1,0h0l-0.1,0h0l-0.1,0h0l-0.1,0h0l-0.1,0h0l-0.1,0h0l-0.1,0h0   l-0.1,0h0l-0.1,0h0l-0.1,0l-0.1,0l-0.1,0h0l-0.1,0h0l-0.1,0h0l-0.1,0h0l-0.1,0h0l-0.1,0h0l-0.1,0l-0.1,0l-0.1,0h0l-0.1,0h0l-0.1,0   h0l-0.1,0h0l-0.1,0h0l-0.1,0l-0.1,0l-0.1,0h0l-0.1,0l-0.1,0l-0.1,0l-0.1,0h0l-0.1,0l-0.1,0.1l-0.1,0.1L71.5,61L71.4,61l-0.1,0.1   l-0.1,0.1l-0.1,0.1L71,61.2l-0.1,0.1l-0.1,0.1l-0.1,0.1l-0.1,0.1l-0.1,0.1l-0.1,0.1l-0.1,0.1l-0.1,0.1h0l-0.1,0.1l-0.1,0.1   l-0.1,0.1L70,62l-0.1,0.1l-0.1,0.1l-0.1,0.1l-0.1,0.1l-0.1,0.1l-0.1,0.1l-0.1,0.1l-0.1,0.1l-0.1,0.1l-0.1,0.1l-0.1,0.1l-0.1,0.1v0   L69.1,63L69,63.1L69,63.2l-0.1,0.1l-0.1,0.1l-0.1,0.1l-0.1,0.1l-0.1,0.1l-0.1,0.1l-0.1,0.1l-0.1,0.1l-0.1,0.1L68.4,64l-0.1,0.1   l-0.1,0.1l-0.1,0.1l0,0.1v0l0,0.1l0,0.1l0,0.1l0,0.1v0l0,0.1l0,0.1l0,0.1v0l0,0.1v0l0,0.1v0l0,0.1v0l0,0.1l0,0.1l0,0.1l0,0.1v0   l0,0.1v0l0,0.1v0l0,0.1v0l0,0.1v0l0,0.1v0l0,0.1l0,0.1l0,0.1v0l0,0.1v0l0,0.1v0l0,0.1v0l0,0.1v0l0,0.1v0l0,0.1v0l0,0.1v0l0,0.1v0   l0,0.1v0l0,0.1v0l0,0.1v0l0,0.1v0l0,0.1v0l0,0.1v0l0,0.1v0l0,0.1v0l0,0.1v0v0l0,0.1l0,0.1l0,0.1l0,0.1v0l0,0.1l0,0.1l0,0.1l0,0.1v0   l0,0.1l0,0.1v0l0,0.1l0,0.1l0,0.1v0l0,0.1v0l0,0.1l0,0.1l0,0.1v0l0,0.1v0l0,0.1v0l0,0.1v0l0,0.1v0l0,0.1v0l0,0.1v0l0,0.1l0,0.1v0   l0,0.1v0l0,0.1l0,0.1l0,0.1l0,0.1v0l0,0.1v0l0,0.1v0l0,0.1v0l0,0.1l0,0.1v0l0,0.1l0,0.1v0l0,0.1v0l0,0.1l0,0.1v0l0.1,0.1v0l0.1,0.1   l0.1,0.1v0l0.1,0.1v0l0.1,0.1l0.1,0.1l0.1,0.1v0l0.1,0.1v0l0.1,0.1l0.1,0.1l0.1,0.1l0.1,0.1v0l0.1,0.1v0l0.1,0.1v0l0.1,0.1l0.1,0.1   v0l0.1,0.1v0l0.1,0.1v0l0.1,0.1v0l0.1,0.1l0.1,0.1l0.1,0.1l0.1,0.1l0.1,0.1l0.1,0.1l0.1,0.1l0.1,0.1v0l0.1,0.1l0.1,0.1l0.1,0.1   l0.1,0.1l0.1,0.1h0l0.1,0.1l0.1,0.1l0.1,0.1l0.1,0.1l0.1,0.1l0.1,0.1l0.1,0.1l0.1,0.1l0.1,0.1v0l0.1,0.1l0.1,0.1l0.1,0.1v0l0.1,0.1   v0l0.1,0.1v0l0.1,0.1v0l0.1,0.1v0l0.1,0l0,0l0.1,0v0l0.1,0v0l0.1,0v0l0.1,0l0,0l0.1,0v0l0.1,0l0.1,0l0,0l0.1,0h0l0.1,0l0,0l0.1,0   l0,0l0.1,0h0l0.1,0l0.1,0v0l0.1,0l0,0l0.1,0l0,0l0.1,0l0,0l0.1,0l0,0l0.1,0l0,0l0.1,0l0,0l0.1,0v0l0.1,0v0l0.1,0l0,0l0.1,0l0,0   l0.1,0l0,0l0.1,0l0,0l0.1,0l0,0l0.1,0l0,0l0.1,0l0,0l0.1,0l0,0l0.1,0l0,0l0.1,0l0,0l0.1,0l0,0l0.1,0l0,0l0.1,0l0,0l0.1,0l0,0l0.1,0   l0,0l0.1,0l0,0l0.1,0l0,0l0.1,0H98.7z M101.9,81.1h-1.2v4.7l0.1-0.2c0.7-1.1,1.1-2.5,1.1-3.9V81.1z M106,55.7h1.5   c1.4,0,2.7,0.6,3.7,1.5c0.9,0.9,1.5,2.3,1.5,3.7v15c0,1.4-0.6,2.7-1.5,3.7l0,0l0,0l0,0c-1,0.9-2.3,1.5-3.7,1.5H106v0.6   c0,2.2-0.6,4.3-1.7,6c-0.9,1.5-2.1,2.7-3.6,3.6c-0.2,2.8-1.5,5.4-3.4,7.3c-2.1,2.1-5,3.4-8.1,3.4H26.8c-3.2,0-6.1-1.3-8.1-3.4   c-2.1-2.1-3.4-5-3.4-8.1V46.3c0-3.2,1.3-6.1,3.4-8.1c0.6-0.6,1.2-1.1,1.9-1.5c0.2-2.8,1.5-5.4,3.4-7.3c2.1-2.1,5-3.4,8.1-3.4h62.4   c3.2,0,6.1,1.3,8.1,3.4c2.1,2.1,3.4,5,3.4,8.1V55.7z M76.7,65.1c1.9,0,3.4,1.5,3.4,3.4c0,1.9-1.5,3.4-3.4,3.4   c-1.9,0-3.4-1.5-3.4-3.4C73.3,66.6,74.8,65.1,76.7,65.1z M26.8,34.7h62.4c3.2,0,6.1,1.3,8.1,3.4c2.1,2.1,3.4,5,3.4,8.1v9.4h1.2   V37.4c0-2.1-0.8-3.9-2.2-5.3c-1.4-1.4-3.2-2.2-5.3-2.2H32.1c-2.1,0-3.9,0.8-5.3,2.2c-0.8,0.8-1.4,1.7-1.8,2.7   c0.3,0,0.6-0.1,0.9-0.1l0,0l0.1,0l0,0l0,0l0,0l0.1,0l0,0l0,0l0,0l0,0l0,0l0,0l0,0l0,0l0,0l0,0l0,0l0,0l0,0l0,0l0,0l0,0l0,0l0,0l0,0   l0,0l0,0l0,0l0,0h0l0,0L26.8,34.7L26.8,34.7L26.8,34.7L26.8,34.7z" fill="#2B2D03"/><path clip-rule="evenodd" d="M67.5,78l-2.1-2.4c-0.7-1-1.8-3.1-1.9-4.2l-0.3-2.4l0.2-2.9   c0.1-1.5,1.2-3.8,2.2-5.1c1.1-1.5,2.5-2.8,4.2-3.8c1.9-1.1,4-1.6,6.2-1.6h20.8v-9.4c0-4.1-3.4-7.5-7.5-7.5H26.8   c-4.1,0-7.5,3.3-7.5,7.5v44.3c0,4.1,3.4,7.5,7.5,7.5h62.4c4.1,0,7.5-3.4,7.5-7.5v-9.4H75.9l-2.6-0.3L73,80.8l-0.9-0.2l-0.1,0   l-0.1,0l-0.6-0.2l-0.3-0.1l-0.1-0.1l-0.4-0.2l-0.1-0.1l-0.5-0.3l-0.4-0.2L69,79.1L68.9,79l-1.1-0.8L67.5,78z" fill="#FFE64C" fill-rule="evenodd"/><path clip-rule="evenodd" d="M76.7,65.1c1.9,0,3.4,1.5,3.4,3.4c0,1.9-1.5,3.4-3.4,3.4   c-1.9,0-3.4-1.5-3.4-3.4C73.3,66.6,74.8,65.1,76.7,65.1z M69.9,74.8l1.1,0.9l0.3,0.2l0.1,0.1l0.1,0.1l0.1,0.1l0.1,0.1l0.2,0.1   l0.1,0l0.1,0l0.2,0.1l0.8,0.3l0.7,0.2l0.1,0l1.5,0.2l23.3,0l8.7,0c0.7,0,1.2-0.5,1.2-1.2v-15c0-0.7-0.5-1.2-1.2-1.2l-31.7,0   l-2.3,0.3l-3.1,1.6l-2.2,2.6c-0.9,1.6-1.2,3.3-1,5.1C67.5,71.5,68.4,73.3,69.9,74.8z" fill="#EAB43B" fill-rule="evenodd"/><path clip-rule="evenodd" d="M89.2,34.7c6.3,0,11.5,5.2,11.5,11.5v9.4h1.2V37.4   c0-4.1-3.4-7.5-7.5-7.5H32.1c-3.2,0-6,2-7,4.9l1.8-0.1H89.2z" fill="#EAB43B" fill-rule="evenodd"/><path clip-rule="evenodd" d="M101.9,81.1h-1.2v4.7C101.7,84.2,101.9,83,101.9,81.1z" fill="#EAB43B" fill-rule="evenodd"/></g></svg>